<?xml version="1.0" encoding="UTF-8"?>
<!DOCTYPE svg PUBLIC "-//W3C//DTD SVG 1.1//EN" "http://www.w3.org/Graphics/SVG/1.1/DTD/svg11.dtd">
<!-- Creator: CorelDRAW -->
<svg xmlns="http://www.w3.org/2000/svg" xml:space="preserve" width="1.9685in" height="1.9685in" version="1.1" style="shape-rendering:geometricPrecision; text-rendering:geometricPrecision; image-rendering:optimizeQuality; fill-rule:evenodd; clip-rule:evenodd"
viewBox="0 0 1968.5 1968.5"
 xmlns:xlink="http://www.w3.org/1999/xlink"
 xmlns:xodm="http://www.corel.com/coreldraw/odm/2003">
 <defs>
  <style type="text/css">
   <![CDATA[
    .fil3 {fill:none}
    .fil0 {fill:#405189}
    .fil4 {fill:#FFCC00}
    .fil1 {fill:#FFCC00}
    .fil2 {fill:white}
   ]]>
  </style>
   <clipPath id="id0">
    <path d="M670.78 1047.09l0 0c60.59,0 110.15,49.57 110.15,110.15l0 506.54c0,60.59 -49.57,110.15 -110.15,110.15l-0 0c-60.59,0 -110.15,-49.57 -110.15,-110.15l0 -506.54c0,-60.59 49.57,-110.15 110.15,-110.15z"/>
   </clipPath>
 </defs>
 <g id="Layer_x0020_1">
  <metadata id="CorelCorpID_0Corel-Layer"/>
  <path class="fil0" d="M306.48 200.59l814.5 0 0 72.87c0,40.07 -38.66,72.86 -85.91,72.86l-662.06 0 0 145.73 662.06 0c47.25,0 85.91,32.79 85.91,72.86l0 72.87 0 145.73 0 72.87c0,40.07 -38.66,72.87 -85.91,72.87l-814.5 0 0 -72.87c0,-40.07 38.66,-72.87 85.91,-72.87l662.06 0 0 -145.73 -662.06 0c-47.25,0 -85.91,-32.79 -85.91,-72.87l0 -72.86 0 -145.73 0 -72.86c0,-40.08 38.66,-72.87 85.91,-72.87z"/>
  <path class="fil0" d="M330.73 1046.22l110.16 0 0 617.57c0,60.59 -49.57,110.15 -110.15,110.15l-110.16 0 0 -617.57c0,-60.59 49.57,-110.15 110.15,-110.15z"/>
  <path class="fil0" d="M900.67 1047.09l110.16 0c60.59,0 110.15,49.57 110.15,110.15l0 617.57 -110.16 0c-60.59,0 -110.15,-49.57 -110.15,-110.15l0 -617.57z"/>
  <path class="fil0" d="M670.78 1047.09l0 0c60.59,0 110.15,49.57 110.15,110.15l0 506.54c0,60.59 -49.57,110.15 -110.15,110.15l-0 0c-60.59,0 -110.15,-49.57 -110.15,-110.15l0 -506.54c0,-60.59 49.57,-110.15 110.15,-110.15z"/>
  <g style="clip-path:url(#id0)">
   <g id="_2874357164016">
    <rect class="fil1" x="618.59" y="1089.74" width="104.37" height="201.26" rx="52.19" ry="33.02"/>
    <ellipse class="fil2" cx="670.78" cy="1136.99" rx="37.09" ry="35.68"/>
   </g>
  </g>
  <path class="fil3" d="M670.78 1047.09l0 0c60.59,0 110.15,49.57 110.15,110.15l0 506.54c0,60.59 -49.57,110.15 -110.15,110.15l-0 0c-60.59,0 -110.15,-49.57 -110.15,-110.15l0 -506.54c0,-60.59 49.57,-110.15 110.15,-110.15z"/>
  <g id="_2874357163536">
   <ellipse class="fil4" cx="451.08" cy="418.98" rx="60.57" ry="60.44"/>
   <circle class="fil2" cx="451.08" cy="418.98" r="39.97"/>
  </g>
  <path class="fil0" d="M1349.12 927.32l0 -370.88c0,-90.72 74.22,-164.94 164.95,-164.94l164.94 0 0 370.88c0,90.72 -74.22,164.94 -164.95,164.94l-164.94 0z"/>
  <path class="fil0" d="M1414.92 202.52l269.07 0 0 60.82c0,33.45 -27.37,60.82 -60.82,60.82l-269.07 0 0 -60.82c0,-33.45 27.37,-60.82 60.82,-60.82z"/>
  <g id="_2874357161088">
   <circle class="fil4" cx="1514.07" cy="789.46" r="43.55"/>
   <circle class="fil4" cx="1514.07" cy="543.64" r="43.55"/>
   <path class="fil2" d="M1530.04 566.84c7.37,-5.08 12.19,-13.57 12.19,-23.2 0,-15.56 -12.6,-28.16 -28.16,-28.16 -15.56,0 -28.16,12.61 -28.16,28.16 0,9.63 4.83,18.12 12.2,23.2l0 199.42c-7.37,5.08 -12.2,13.57 -12.2,23.2 0,15.56 12.61,28.16 28.16,28.16 15.56,0 28.16,-12.6 28.16,-28.16 0,-9.62 -4.82,-18.11 -12.19,-23.19l0 -199.43z"/>
  </g>
  <g id="_2874357205104">
   <ellipse class="fil4" cx="889.6" cy="711.57" rx="60.57" ry="60.44"/>
   <circle class="fil2" cx="889.6" cy="711.57" r="39.97"/>
  </g>
  <g id="_2874357207552">
   <path class="fil0" d="M1349.12 1050l0 370.88c0,90.72 74.22,164.94 164.95,164.94l164.94 0 0 -370.88c0,-90.72 -74.22,-164.94 -164.95,-164.94l-164.94 0z"/>
   <path class="fil0" d="M1414.92 1774.8l269.07 0 0 -60.82c0,-33.45 -27.37,-60.82 -60.82,-60.82l-269.07 0 0 60.82c0,33.45 27.37,60.82 60.82,60.82z"/>
   <g>
    <circle class="fil4" cx="1514.07" cy="1187.86" r="43.55"/>
    <circle class="fil4" cx="1514.07" cy="1433.68" r="43.55"/>
    <path class="fil2" d="M1530.04 1410.48c7.37,5.08 12.19,13.57 12.19,23.2 0,15.56 -12.6,28.16 -28.16,28.16 -15.56,0 -28.16,-12.61 -28.16,-28.16 0,-9.63 4.83,-18.12 12.2,-23.2l0 -199.42c-7.37,-5.08 -12.2,-13.57 -12.2,-23.2 0,-15.56 12.61,-28.16 28.16,-28.16 15.56,0 28.16,12.6 28.16,28.16 0,9.62 -4.82,18.11 -12.19,23.19l0 199.43z"/>
   </g>
   <g>
    <g>
     <circle class="fil4" cx="1622.31" cy="1713.98" r="18.61"/>
     <circle class="fil4" cx="1571.05" cy="1713.98" r="18.61"/>
     <circle class="fil4" cx="1519.8" cy="1713.98" r="18.61"/>
     <circle class="fil4" cx="1468.54" cy="1713.98" r="18.61"/>
     <circle class="fil4" cx="1415.79" cy="1713.98" r="18.61"/>
    </g>
    <circle class="fil2" cx="1571.05" cy="1713.98" r="11.27"/>
    <circle class="fil2" cx="1622.31" cy="1713.98" r="11.27"/>
    <circle class="fil2" cx="1519.8" cy="1713.98" r="11.27"/>
    <circle class="fil2" cx="1468.54" cy="1713.98" r="11.27"/>
    <circle class="fil2" cx="1415.8" cy="1713.98" r="11.27"/>
   </g>
  </g>
  <g id="_2873927471888">
   <g>
    <circle class="fil4" cx="1621.55" cy="263.34" r="18.61"/>
    <circle class="fil4" cx="1570.3" cy="263.34" r="18.61"/>
    <circle class="fil4" cx="1519.05" cy="263.34" r="18.61"/>
    <circle class="fil4" cx="1467.79" cy="263.34" r="18.61"/>
    <circle class="fil4" cx="1415.04" cy="263.34" r="18.61"/>
   </g>
   <circle class="fil2" cx="1570.3" cy="263.34" r="11.27"/>
   <circle class="fil2" cx="1621.55" cy="263.34" r="11.27"/>
   <circle class="fil2" cx="1519.05" cy="263.34" r="11.27"/>
   <circle class="fil2" cx="1467.79" cy="263.34" r="11.27"/>
   <circle class="fil2" cx="1415.04" cy="263.34" r="11.27"/>
  </g>
 </g>
</svg>
