<?xml version="1.0" encoding="UTF-8"?>
<!DOCTYPE svg PUBLIC "-//W3C//DTD SVG 1.1//EN" "http://www.w3.org/Graphics/SVG/1.1/DTD/svg11.dtd">
<!-- Creator: CorelDRAW -->
<svg xmlns="http://www.w3.org/2000/svg" xml:space="preserve" width="1.9685in" height="1.9685in" version="1.1" style="shape-rendering:geometricPrecision; text-rendering:geometricPrecision; image-rendering:optimizeQuality; fill-rule:evenodd; clip-rule:evenodd"
viewBox="0 0 1968.5 1968.5"
 xmlns:xlink="http://www.w3.org/1999/xlink"
 xmlns:xodm="http://www.corel.com/coreldraw/odm/2003">
 <defs>
  <style type="text/css">
   <![CDATA[
    .fil0 {fill:white}
   ]]>
  </style>
 </defs>
 <g id="Layer_x0020_1">
  <metadata id="CorelCorpID_0Corel-Layer"/>
  <path class="fil0" d="M300.85 797.71l452.56 0 0 33.83c0,18.61 -21.48,33.84 -47.74,33.84l-367.86 0 0 67.67 367.86 0c26.26,0 47.74,15.22 47.74,33.83l0 33.83 0 67.67 0 33.83c0,18.61 -21.48,33.83 -47.74,33.83l-452.56 0 0 -33.83c0,-18.61 21.48,-33.83 47.73,-33.83l367.86 0 0 -67.67 -367.86 0c-26.25,0 -47.73,-15.22 -47.73,-33.83l0 -33.83 0 -67.67 0 -33.84c0,-18.61 21.48,-33.83 47.73,-33.83z"/>
  <path class="fil0" d="M1064 795.95l61.2 0 0 276.72c0,33.67 -27.54,61.2 -61.2,61.2l-61.2 0 0 -276.72c0,-33.67 27.54,-61.2 61.2,-61.2z"/>
  <path class="fil0" d="M1380.67 796.36l61.2 0c33.67,0 61.2,27.54 61.2,61.2l0 276.72 -61.2 0c-33.67,0 -61.2,-27.54 -61.2,-61.2l0 -276.72z"/>
  <rect class="fil0" x="1191.73" y="796.19" width="122.41" height="337.86" rx="61.2" ry="63.12"/>
  <g id="_2874688852736">
   <path class="fil0" d="M1592.63 1136.07l0 -197.93c0,-28.72 23.49,-52.21 52.2,-52.21l52.22 0 0 197.93c0,28.71 -23.49,52.21 -52.2,52.21l-52.22 0z"/>
   <path class="fil0" d="M1622.59 797.71l76.04 0 0 28.39c0,15.62 -12.77,28.39 -28.39,28.39l-76.04 0 0 -28.39c0,-15.62 12.77,-28.39 28.39,-28.39z"/>
  </g>
  <g id="_2874688853024">
   <path class="fil0" d="M814.23 1136.07l0 -197.93c0,-28.72 23.5,-52.21 52.21,-52.21l52.22 0 0 197.93c0,28.71 -23.49,52.21 -52.21,52.21l-52.22 0z"/>
   <path class="fil0" d="M844.19 797.71l76.04 0 0 28.39c0,15.62 -12.77,28.39 -28.39,28.39l-76.04 0 0 -28.39c0,-15.62 12.77,-28.39 28.39,-28.39z"/>
  </g>
 </g>
</svg>
